HIERARCHY
ROOT simHips
{
  OFFSET -223.268 99.7686 374.689
  CHANNELS 6 Xposition Yposition Zposition Zrotation Xrotation Yrotation
  JOINT simSpine
  {
    OFFSET -0.000355721 21.3001 -0.016921
    CHANNELS 3 Zrotation Xrotation Yrotation
    JOINT simLeftArm
    {
      OFFSET 13.5181 21.3012 0
      CHANNELS 3 Zrotation Xrotation Yrotation
      JOINT simLeftForeArm
      {
        OFFSET 24.5783 0 0
        CHANNELS 3 Zrotation Xrotation Yrotation
        JOINT simLeftHand
        {
          OFFSET 24.5783 0 0
          CHANNELS 3 Zrotation Xrotation Yrotation
          End Site
          {
            OFFSET 7.32568 1.52588e-005 0.0169305
          }
        }
      }
    }
    JOINT simHead
    {
      OFFSET 0 27.4458 -0.00489235
      CHANNELS 3 Zrotation Xrotation Yrotation
      End Site
      {
        OFFSET 0 0 0
      }
    }
    JOINT simRightArm
    {
      OFFSET -13.5174 21.3012 0
      CHANNELS 3 Zrotation Xrotation Yrotation
      JOINT simRightForeArm
      {
        OFFSET -24.5783 0 0
        CHANNELS 3 Zrotation Xrotation Yrotation
        JOINT simRightHand
        {
          OFFSET -24.5783 0 0
          CHANNELS 3 Zrotation Xrotation Yrotation
          End Site
          {
            OFFSET -7.32568 1.52588e-005 0.0169305
          }
        }
      }
    }
  }
  JOINT simRightUpLeg
  {
    OFFSET -8.44614 -9.41038 0.835684
    CHANNELS 3 Zrotation Xrotation Yrotation
    JOINT simRightLeg
    {
      OFFSET 0 -40.9639 0
      CHANNELS 3 Zrotation Xrotation Yrotation
      JOINT simRightFoot
      {
        OFFSET 0 -40.9639 0
        CHANNELS 3 Zrotation Xrotation Yrotation
        End Site
        {
          OFFSET 0.50614 -9.67405 14.6709
        }
      }
    }
  }
  JOINT simLeftUpLeg
  {
    OFFSET 8.44614 -9.41038 0.835684
    CHANNELS 3 Zrotation Xrotation Yrotation
    JOINT simLeftLeg
    {
      OFFSET 0 -40.9639 0
      CHANNELS 3 Zrotation Xrotation Yrotation
      JOINT simLeftFoot
      {
        OFFSET 0 -40.9639 0
        CHANNELS 3 Zrotation Xrotation Yrotation
        End Site
        {
          OFFSET -0.50614 -9.67405 14.6709
        }
      }
    }
  }
}
MOTION
Frames:	10
Frame Time:	0.0333333
-223.268 99.7686 374.689 0 0 -0 0 0 -0.00204799 -6.83019e-006 -1.70755e-006 -1.53679e-005 6.83059e-006 0.00119475 -1.93613e-005 0 0 -9.4459e-006 -1.70755e-006 0 -0 6.83019e-006 -8.53773e-007 5.12264e-006 -6.83206e-006 -0.00714553 -1.49954e-005 -2.13444e-007 6.83019e-006 9.87279e-006 -2.11765 3.70405 0.0868935 8.87481e-005 1.99978 0.0111058 2.12058 -5.70356 0.105392 1.19824 4.52898 -0.0471988 -0.000151082 -0.0146439 2.52743e-006 -1.20308 -4.51434 -0.0472263 
-223.247 99.7639 374.732 0.00569153 -0.0336201 0.0649534 -0.00350908 -0.00190946 -0.00204799 -0.00137162 -0.139238 -0.0636113 -0.0321651 0.00119475 -1.93613e-005 0.0523673 -0.111144 -0.0298977 -0.00978963 0.0880099 -0.0393808 -0.0142425 0.014689 -0.094639 0.0322356 -0.00714553 0.0675884 0.0686134 -0.0625437 -0.185731 -2.11375 3.76925 0.0359423 -0.0403019 2.01555 0.00818173 2.15681 -5.74192 0.105399 1.16485 4.53323 -0.0471991 0.0361359 0.0795174 -0.0427938 -1.20543 -4.57125 -0.0760608 
-223.215 99.7531 374.805 0.0328483 -0.0740171 0.166828 -0.0123447 -0.00930484 -0.00828222 -0.0228495 -0.360819 -0.166691 -0.058097 0.00212963 -1.93613e-005 0.107088 -0.282908 -0.0529007 -0.04666 0.206425 -0.117963 -0.080407 -0.0372691 -0.226254 0.0692844 -0.00714551 0.15387 0.150842 -0.132306 -0.519608 -2.11463 3.78691 -0.114593 -0.135026 2.20281 0.0501724 2.23254 -5.89292 0.121436 1.10703 4.57609 -0.0548009 0.0611332 0.160436 -0.0988267 -1.19984 -4.64035 -0.114858 
-223.184 99.7411 374.871 0.0789379 -0.0766473 0.267192 -0.0242198 -0.0235827 -0.0223691 -0.058749 -0.530591 -0.270314 -0.0628935 0.00262325 -1.93613e-005 0.0758662 -0.316988 -0.0379074 -0.121138 0.262026 -0.246385 -0.173422 -0.151177 -0.325193 0.0534885 -0.0071455 0.171994 0.110688 -0.0983956 -0.611665 -2.13486 3.72512 -0.305649 -0.232564 2.44954 0.117732 2.31008 -6.0626 0.154944 1.05737 4.64864 -0.0968157 0.030791 0.0890841 -0.13033 -1.16697 -4.62328 -0.139504 
-223.158 99.733 374.927 0.122139 -0.0482724 0.391156 -0.0349097 -0.0390794 -0.0447174 -0.0907984 -0.632102 -0.392409 -0.0637544 0.00303188 -1.93613e-005 -0.0281142 -0.255246 0.00330856 -0.214576 0.214418 -0.437339 -0.254887 -0.222396 -0.444769 0.00390121 -0.00877722 0.190912 -0.0015555 -0.031043 -0.456032 -2.1678 3.66269 -0.44367 -0.288228 2.62811 0.134804 2.36245 -6.19541 0.160421 1.0314 4.71759 -0.145769 -0.0319883 -0.0478481 -0.169732 -1.12198 -4.56702 -0.171796 
-223.134 99.7307 374.97 0.140383 -0.0235257 0.533363 -0.0380712 -0.0469489 -0.0681843 -0.102346 -0.638175 -0.526113 -0.0727092 0.0033594 -1.93613e-005 -0.116343 -0.210908 0.0585842 -0.289273 0.0662691 -0.659731 -0.300358 -0.198155 -0.599966 -0.0341078 -0.0108023 0.260315 -0.0725228 -0.0153838 -0.276825 -2.19459 3.68866 -0.481014 -0.288424 2.62213 0.0742381 2.38006 -6.23034 0.120227 1.02768 4.68254 -0.170408 -0.0787422 -0.0153987 -0.23447 -1.09064 -4.56771 -0.221227 
-223.112 99.7308 375.004 0.13542 -0.017651 0.640256 -0.0387234 -0.0483432 -0.0821634 -0.0891087 -0.548243 -0.622376 -0.0935628 0.00360971 -1.93613e-005 -0.143221 -0.222153 0.110726 -0.321133 -0.115751 -0.843512 -0.314639 -0.134018 -0.721161 -0.0410964 -0.0120406 0.313151 -0.125901 -0.0132354 -0.163265 -2.20995 3.79388 -0.442929 -0.257852 2.47546 -0.0136389 2.37781 -6.18851 0.064493 1.03307 4.67759 -0.180319 -0.0947775 0.00346088 -0.287263 -1.07798 -4.56314 -0.260532 
-223.091 99.7314 375.03 0.122683 -0.0145057 0.654075 -0.0384903 -0.0468694 -0.0785603 -0.0484663 -0.421615 -0.625118 -0.12952 0.00378669 -1.93613e-005 -0.114848 -0.225545 0.127336 -0.286301 -0.261959 -0.93496 -0.305598 -0.107002 -0.733075 -0.0223855 -0.0113119 0.267898 -0.238289 0.013996 -0.0725457 -2.22018 3.86401 -0.411597 -0.233066 2.3668 -0.0406918 2.3792 -6.1514 0.0488167 1.02499 4.6264 -0.163363 -0.0820591 0.101869 -0.301334 -1.07964 -4.59925 -0.2712 
-223.076 99.7313 375.051 0.114347 -0.00776458 0.579836 -0.0396686 -0.0447441 -0.0600436 -0.00194528 -0.29853 -0.54219 -0.179061 0.00389423 -1.93613e-005 -0.0684394 -0.161222 0.109448 -0.210317 -0.302525 -0.956944 -0.297446 -0.0892778 -0.643534 0.0219802 -0.00605928 0.145079 -0.350997 0.0770708 -0.0130657 -2.23199 3.84995 -0.42125 -0.225758 2.387 0.0129834 2.39054 -6.16609 0.0860724 1.01464 4.63926 -0.152623 -0.0716335 0.108702 -0.259455 -1.07817 -4.6177 -0.243354 
-223.064 99.7307 375.07 0.106525 -0.00838631 0.478918 -0.0444542 -0.0420548 -0.0350471 0.0430577 -0.140897 -0.447306 -0.212196 0.00393621 -1.93613e-005 -0.0438515 -0.0377048 0.086915 -0.122479 -0.253675 -0.952528 -0.285203 -0.0183874 -0.544108 0.081445 -0.00349566 0.0472103 -0.374192 0.21944 -0.00889238 -2.23818 3.83149 -0.443193 -0.227197 2.4211 0.0911032 2.40254 -6.1839 0.138736 1.01094 4.67866 -0.179713 -0.0742064 0.11241 -0.179642 -1.07493 -4.65536 -0.190703 
